Coordinates
version=1
nRows=6
nColumns=36
inDegrees=yes

Units are S.I. units (second, meters, Newtons, ...)
If the header above contains a line with 'inDegrees', this indicates whether rotational values are in degrees (yes) or radians (no).

endheader
time	pelvis_tilt	pelvis_list	pelvis_rotation	pelvis_tx	pelvis_ty	pelvis_tz	hip_flexion_r	hip_adduction_r	hip_rotation_r	knee_angle_r	knee_angle_r_beta	ankle_angle_r	subtalar_angle_r	mtp_angle_r	hip_flexion_l	hip_adduction_l	hip_rotation_l	knee_angle_l	knee_angle_l_beta	ankle_angle_l	subtalar_angle_l	mtp_angle_l	lumbar_extension	lumbar_bending	lumbar_rotation	arm_flex_r	arm_add_r	arm_rot_r	elbow_flex_r	pro_sup_r	arm_flex_l	arm_add_l	arm_rot_l	elbow_flex_l	pro_sup_l
      0.00000000	      2.82095889	     -0.71719075	      1.50661530	     -1.03117330	      1.30374843	     -0.06649488	     -5.09115330	      1.71673592	     -5.58596670	      4.16557448	      0.07270299	      0.49663042	    -21.92047336	     -5.94522991	     -3.14903904	     -1.32827689	     -0.67560510	      6.92127898	      0.12079911	      2.49739956	    -14.05968584	     -5.94522991	    -12.07424761	      2.53363230	     -2.11014961	      9.01173062	     -6.44117289	     20.58012856	     27.43179704	     78.88285222	      9.97331047	     -5.77946717	     43.90468519	     35.31206709	     61.49785281
      0.00416670	      0.95243616	      0.13734870	      2.07388563	     -1.02959564	      1.30567112	     -0.06856381	     -2.70924663	      0.89271265	     -6.26215322	      4.71333878	      0.08226328	      3.78559549	    -19.33210771	     -6.16724708	     -0.09331312	      0.04638038	     -1.47203808	      7.65859922	      0.13366777	      2.82375718	    -12.87894771	     -6.16724708	     -9.79656694	      1.69446547	     -2.50952363	      7.82474306	     -5.86965346	     17.50528985	     26.99492968	     79.68969361	     10.17556895	     -5.60124470	     45.36399702	     34.06883155	     62.77044502
      0.00833330	      0.39518498	      1.20578419	      1.99115341	     -1.03106290	      1.30680095	     -0.06898166	     -2.55691612	     -0.19171903	     -7.19698595	      3.61815757	      0.06314876	      3.89884286	    -18.18202147	     -6.29047415	      0.49771854	      1.19230953	     -2.86170651	      7.44297343	      0.12990439	      2.73773213	    -11.70274899	     -6.29047415	     -9.10213795	      0.27400210	     -2.59273543	      8.06928284	     -5.09096276	     17.32252639	     25.88083611	     79.04976324	     10.97798610	     -6.40628405	     46.82914187	     34.35519115	     63.33120521
      0.01250000	      0.92822305	      1.77966318	      2.08623111	     -1.03161517	      1.30901324	     -0.06663795	     -3.54107610	     -0.69753407	     -7.57021919	      2.78648306	      0.04863330	      4.06814410	    -17.42545648	     -6.34961558	     -0.51741108	      1.77629605	     -3.62027920	      6.68622896	      0.11669671	      1.98738802	    -11.76005440	     -6.34961558	     -9.92301519	     -0.44182946	     -2.64459950	      8.09391361	     -4.67734672	     17.25633863	     25.51360249	     78.82615571	     11.84244050	     -7.16836892	     48.40046029	     34.84312220	     63.99580403
      0.01666670	      1.18446980	      1.98617656	      2.21055003	     -1.03064271	      1.30738168	     -0.06560219	     -4.21727956	     -0.72847434	     -7.82872007	      2.11603107	      0.03693171	      4.40082851	    -16.77335926	     -6.57354796	     -1.05832158	      1.97504541	     -3.73375030	      6.23453656	      0.10881319	      1.90597265	    -11.58797199	     -6.57354796	    -10.33246030	     -0.72596562	     -1.86549827	      7.40430849	     -4.69729132	     16.19711611	     26.13509908	     79.29704640	     13.48351850	     -7.83836373	     54.07747372	     34.94505794	     68.17638791
      0.02083330	      1.49751879	      2.07716197	      2.27022200	     -1.03256478	      1.30116230	     -0.06919539	     -4.75020674	     -0.74338921	     -7.64191501	      1.88037279	      0.03281870	      4.54110346	    -17.12955934	     -6.56349638	     -1.32205046	      2.19581463	     -3.52566852	      6.18062359	      0.10787223	      2.17014090	    -11.82433894	     -6.56349638	    -10.89910794	     -0.70519766	     -1.97169131	      7.49324485	     -4.88918121	     16.51843969	     26.50019889	     79.15307812	     13.80557379	     -8.31871267	     55.00928617	     35.97412274	     68.85926870
